<svg xmlns="http://www.w3.org/2000/svg" width="1200" height="800" viewBox="0 0 1200 800">
  <defs>
    <radialGradient id="bg" cx="50%" cy="70%" r="90%">
      <stop offset="0%" stop-color="#211508"/>
      <stop offset="100%" stop-color="#0c0804"/>
    </radialGradient>
    <radialGradient id="warmth" cx="50%" cy="55%" r="55%">
      <stop offset="0%" stop-color="#C9A96E" stop-opacity="0.13"/>
      <stop offset="100%" stop-color="#C9A96E" stop-opacity="0"/>
    </radialGradient>
  </defs>
  <rect width="1200" height="800" fill="url(#bg)"/>
  <rect width="1200" height="800" fill="url(#warmth)"/>
  <!-- grupo de pessoas - silhuetas variadas -->
  <!-- fila de trás -->
  <g opacity="0.35" fill="#C9A96E">
    <ellipse cx="160" cy="370" rx="40" ry="45"/>
    <ellipse cx="280" cy="355" rx="44" ry="50"/>
    <ellipse cx="400" cy="365" rx="40" ry="45"/>
    <ellipse cx="520" cy="350" rx="46" ry="52"/>
    <ellipse cx="680" cy="350" rx="46" ry="52"/>
    <ellipse cx="800" cy="365" rx="40" ry="45"/>
    <ellipse cx="920" cy="355" rx="44" ry="50"/>
    <ellipse cx="1040" cy="370" rx="40" ry="45"/>
  </g>
  <!-- corpos fila de trás -->
  <g opacity="0.22" fill="#C9A96E">
    <rect x="128" y="415" width="64" height="200" rx="32"/>
    <rect x="244" y="405" width="72" height="210" rx="36"/>
    <rect x="368" y="410" width="64" height="205" rx="32"/>
    <rect x="484" y="400" width="72" height="215" rx="36"/>
    <rect x="644" y="400" width="72" height="215" rx="36"/>
    <rect x="768" y="410" width="64" height="205" rx="32"/>
    <rect x="884" y="405" width="72" height="210" rx="36"/>
    <rect x="1008" y="415" width="64" height="200" rx="32"/>
  </g>
  <!-- figura central destacada -->
  <ellipse cx="600" cy="310" rx="66" ry="74" fill="#2e1c0e"/>
  <path d="M490 500 Q496 445 534 428 Q562 416 600 413 Q638 416 666 428 Q704 445 710 500Z" fill="#2e1c0e"/>
  <!-- braços abertos (acolhimento) -->
  <path d="M490 455 Q440 430 400 415" stroke="#2e1c0e" stroke-width="30" stroke-linecap="round" fill="none"/>
  <path d="M710 455 Q760 430 800 415" stroke="#2e1c0e" stroke-width="30" stroke-linecap="round" fill="none"/>
  <!-- linha de chão -->
  <line x1="0" y1="670" x2="1200" y2="670" stroke="#C9A96E" stroke-opacity="0.06" stroke-width="1"/>
  <text x="600" y="52" text-anchor="middle" fill="#C9A96E" font-size="12" font-family="Georgia, serif" letter-spacing="6" opacity="0.7">COMUNIDADE</text>
  <text x="600" y="748" text-anchor="middle" fill="#C9A96E" font-size="10" font-family="Arial, sans-serif" letter-spacing="4" opacity="0.4">MISSÃO — substituir por foto real</text>
</svg>
