<svg xmlns="http://www.w3.org/2000/svg" width="1200" height="800" viewBox="0 0 1200 800">
  <defs>
    <linearGradient id="bg" x1="0" y1="0" x2="0" y2="1">
      <stop offset="0%" stop-color="#1a1108"/>
      <stop offset="100%" stop-color="#0d0905"/>
    </linearGradient>
    <radialGradient id="stage" cx="28%" cy="55%" r="35%">
      <stop offset="0%" stop-color="#C9A96E" stop-opacity="0.2"/>
      <stop offset="100%" stop-color="#C9A96E" stop-opacity="0"/>
    </radialGradient>
  </defs>
  <rect width="1200" height="800" fill="url(#bg)"/>
  <rect width="1200" height="800" fill="url(#stage)"/>
  <!-- plateia - fileiras de cabeças -->
  <g opacity="0.18" fill="#C9A96E">
    <ellipse cx="160" cy="700" rx="22" ry="18"/>
    <ellipse cx="230" cy="695" rx="22" ry="18"/>
    <ellipse cx="300" cy="700" rx="22" ry="18"/>
    <ellipse cx="370" cy="695" rx="22" ry="18"/>
    <ellipse cx="440" cy="700" rx="22" ry="18"/>
    <ellipse cx="760" cy="700" rx="22" ry="18"/>
    <ellipse cx="830" cy="695" rx="22" ry="18"/>
    <ellipse cx="900" cy="700" rx="22" ry="18"/>
    <ellipse cx="970" cy="695" rx="22" ry="18"/>
    <ellipse cx="1040" cy="700" rx="22" ry="18"/>
    <ellipse cx="200" cy="740" rx="22" ry="18"/>
    <ellipse cx="270" cy="735" rx="22" ry="18"/>
    <ellipse cx="340" cy="740" rx="22" ry="18"/>
    <ellipse cx="410" cy="735" rx="22" ry="18"/>
    <ellipse cx="800" cy="740" rx="22" ry="18"/>
    <ellipse cx="870" cy="735" rx="22" ry="18"/>
    <ellipse cx="940" cy="740" rx="22" ry="18"/>
    <ellipse cx="1010" cy="735" rx="22" ry="18"/>
  </g>
  <!-- palco linha -->
  <rect x="0" y="655" width="1200" height="3" fill="#C9A96E" opacity="0.12"/>
  <!-- figura palestrante -->
  <ellipse cx="340" cy="330" rx="72" ry="80" fill="#2a1a0e"/>
  <path d="M220 658 Q228 500 284 476 Q310 464 340 461 Q370 464 396 476 Q452 500 460 658Z" fill="#2a1a0e"/>
  <!-- braço apontando -->
  <path d="M420 510 Q490 470 550 450" stroke="#2a1a0e" stroke-width="32" stroke-linecap="round" fill="none"/>
  <!-- slide/tela atrás -->
  <rect x="600" y="160" width="540" height="340" rx="12" fill="#1e1409" stroke="#C9A96E" stroke-opacity="0.14" stroke-width="1"/>
  <line x1="640" y1="220" x2="860" y2="220" stroke="#C9A96E" stroke-opacity="0.12" stroke-width="2"/>
  <line x1="640" y1="260" x2="1080" y2="260" stroke="#C9A96E" stroke-opacity="0.08" stroke-width="2"/>
  <line x1="640" y1="300" x2="980" y2="300" stroke="#C9A96E" stroke-opacity="0.08" stroke-width="2"/>
  <text x="600" y="52" text-anchor="middle" fill="#C9A96E" font-size="12" font-family="Georgia, serif" letter-spacing="6" opacity="0.7">PALESTRA</text>
  <text x="600" y="748" text-anchor="middle" fill="#C9A96E" font-size="10" font-family="Arial, sans-serif" letter-spacing="4" opacity="0.4">AUTORIDADE PÚBLICA — substituir por foto real</text>
</svg>
